<mxfile host="app.diagrams.net" modified="2022-12-13T09:44:05.725Z" agent="5.0 (Windows NT 10.0; Win64; x64) AppleWebKit/537.36 (KHTML, like Gecko) Chrome/108.0.0.0 Safari/537.36" etag="1bYx3cK3fXjkpuhHXIsf" version="20.6.2" type="github">
  <diagram name="Page-1" id="edf60f1a-56cd-e834-aa8a-f176f3a09ee4">
    <mxGraphModel dx="2522" dy="705" grid="1" gridSize="10" guides="1" tooltips="1" connect="1" arrows="1" fold="1" page="1" pageScale="1" pageWidth="1100" pageHeight="850" background="none" math="0" shadow="0">
      <root>
        <mxCell id="0" />
        <mxCell id="1" parent="0" />
        <mxCell id="HY_F-ehwbemfX3zCRTfl-33" style="edgeStyle=orthogonalEdgeStyle;rounded=0;html=1;labelBackgroundColor=none;startSize=5;endArrow=classicThin;endFill=1;endSize=5;jettySize=auto;orthogonalLoop=1;strokeWidth=1;fontFamily=Verdana;fontSize=8" edge="1" parent="1" source="HY_F-ehwbemfX3zCRTfl-34" target="HY_F-ehwbemfX3zCRTfl-37">
          <mxGeometry relative="1" as="geometry" />
        </mxCell>
        <mxCell id="HY_F-ehwbemfX3zCRTfl-34" value="RAW DATA" style="shape=trapezoid;whiteSpace=wrap;html=1;rounded=0;shadow=1;labelBackgroundColor=none;strokeWidth=1;fontFamily=Verdana;fontSize=8;align=center;flipV=1;" vertex="1" parent="1">
          <mxGeometry x="290" y="20" width="120" height="60" as="geometry" />
        </mxCell>
        <mxCell id="HY_F-ehwbemfX3zCRTfl-35" value="가공" style="rounded=0;whiteSpace=wrap;html=1;shadow=1;labelBackgroundColor=none;strokeWidth=1;fontFamily=Verdana;fontSize=8;align=center;" vertex="1" parent="1">
          <mxGeometry x="290" y="120" width="120" height="60" as="geometry" />
        </mxCell>
        <mxCell id="HY_F-ehwbemfX3zCRTfl-36" value="" style="edgeStyle=orthogonalEdgeStyle;rounded=0;html=1;labelBackgroundColor=none;startSize=5;endArrow=classicThin;endFill=1;endSize=5;jettySize=auto;orthogonalLoop=1;strokeWidth=1;fontFamily=Verdana;fontSize=8" edge="1" parent="1" source="HY_F-ehwbemfX3zCRTfl-37" target="HY_F-ehwbemfX3zCRTfl-39">
          <mxGeometry x="-0.5" y="10" relative="1" as="geometry">
            <mxPoint as="offset" />
          </mxGeometry>
        </mxCell>
        <mxCell id="HY_F-ehwbemfX3zCRTfl-37" value="Falg col&lt;br&gt;-조정자가 누굴 픽했는지 마킹" style="rhombus;whiteSpace=wrap;html=1;rounded=0;shadow=1;labelBackgroundColor=none;strokeWidth=1;fontFamily=Verdana;fontSize=8;align=center;" vertex="1" parent="1">
          <mxGeometry x="270" y="210" width="166.67" height="100" as="geometry" />
        </mxCell>
        <mxCell id="HY_F-ehwbemfX3zCRTfl-38" style="edgeStyle=orthogonalEdgeStyle;rounded=0;html=1;labelBackgroundColor=none;startSize=5;endArrow=classicThin;endFill=1;endSize=5;jettySize=auto;orthogonalLoop=1;strokeWidth=1;fontFamily=Verdana;fontSize=8" edge="1" parent="1" source="HY_F-ehwbemfX3zCRTfl-39" target="HY_F-ehwbemfX3zCRTfl-40">
          <mxGeometry relative="1" as="geometry" />
        </mxCell>
        <mxCell id="HY_F-ehwbemfX3zCRTfl-39" value="Other 값을 Other (Site of Lesion)로 치환" style="whiteSpace=wrap;html=1;rounded=0;shadow=1;labelBackgroundColor=none;strokeWidth=1;fontFamily=Verdana;fontSize=8;align=center;" vertex="1" parent="1">
          <mxGeometry x="241.26" y="345.28" width="224.16" height="74.72" as="geometry" />
        </mxCell>
        <mxCell id="HY_F-ehwbemfX3zCRTfl-40" value="알파벳 대문자로 치환" style="whiteSpace=wrap;html=1;rounded=0;shadow=1;labelBackgroundColor=none;strokeWidth=1;fontFamily=Verdana;fontSize=8;align=center;spacing=6;" vertex="1" parent="1">
          <mxGeometry x="293.33" y="470" width="120" height="40" as="geometry" />
        </mxCell>
        <mxCell id="HY_F-ehwbemfX3zCRTfl-41" style="edgeStyle=orthogonalEdgeStyle;rounded=0;html=1;labelBackgroundColor=none;startSize=5;endArrow=classicThin;endFill=1;endSize=5;jettySize=auto;orthogonalLoop=1;strokeWidth=1;fontFamily=Verdana;fontSize=8" edge="1" parent="1">
          <mxGeometry relative="1" as="geometry">
            <mxPoint x="350.0837931034484" y="510.0000000000001" as="sourcePoint" />
            <mxPoint x="150" y="590" as="targetPoint" />
            <Array as="points">
              <mxPoint x="350" y="530" />
              <mxPoint x="150" y="530" />
            </Array>
          </mxGeometry>
        </mxCell>
        <mxCell id="HY_F-ehwbemfX3zCRTfl-42" value="TU" style="whiteSpace=wrap;html=1;rounded=0;shadow=1;labelBackgroundColor=none;strokeWidth=1;fontFamily=Verdana;fontSize=8;align=center;spacing=6;" vertex="1" parent="1">
          <mxGeometry x="90" y="590" width="120" height="40" as="geometry" />
        </mxCell>
        <mxCell id="HY_F-ehwbemfX3zCRTfl-43" value="" style="edgeStyle=orthogonalEdgeStyle;rounded=0;orthogonalLoop=1;jettySize=auto;html=1;" edge="1" parent="1" source="HY_F-ehwbemfX3zCRTfl-44" target="HY_F-ehwbemfX3zCRTfl-57">
          <mxGeometry relative="1" as="geometry" />
        </mxCell>
        <mxCell id="HY_F-ehwbemfX3zCRTfl-44" value="New Lesion" style="shape=hexagon;perimeter=hexagonPerimeter2;whiteSpace=wrap;html=1;fixedSize=1;" vertex="1" parent="1">
          <mxGeometry x="295" y="710" width="120" height="50" as="geometry" />
        </mxCell>
        <mxCell id="HY_F-ehwbemfX3zCRTfl-45" style="edgeStyle=orthogonalEdgeStyle;rounded=0;html=1;labelBackgroundColor=none;startSize=5;endArrow=classicThin;endFill=1;endSize=5;jettySize=auto;orthogonalLoop=1;strokeWidth=1;fontFamily=Verdana;fontSize=8;entryX=0.5;entryY=0;entryDx=0;entryDy=0;" edge="1" parent="1" target="HY_F-ehwbemfX3zCRTfl-48">
          <mxGeometry relative="1" as="geometry">
            <mxPoint x="150.05379310344844" y="630" as="sourcePoint" />
            <mxPoint x="20" y="710" as="targetPoint" />
            <Array as="points">
              <mxPoint x="150" y="650" />
              <mxPoint x="-50" y="650" />
            </Array>
          </mxGeometry>
        </mxCell>
        <mxCell id="HY_F-ehwbemfX3zCRTfl-46" style="edgeStyle=orthogonalEdgeStyle;rounded=0;html=1;labelBackgroundColor=none;startSize=5;endArrow=classicThin;endFill=1;endSize=5;jettySize=auto;orthogonalLoop=1;strokeWidth=1;fontFamily=Verdana;fontSize=8;entryX=0.5;entryY=0;entryDx=0;entryDy=0;" edge="1" parent="1" target="HY_F-ehwbemfX3zCRTfl-44">
          <mxGeometry relative="1" as="geometry">
            <mxPoint x="149.97" y="650" as="sourcePoint" />
            <mxPoint x="290.0044827586207" y="700" as="targetPoint" />
            <Array as="points">
              <mxPoint x="355" y="650" />
            </Array>
          </mxGeometry>
        </mxCell>
        <mxCell id="HY_F-ehwbemfX3zCRTfl-47" value="" style="edgeStyle=orthogonalEdgeStyle;rounded=0;orthogonalLoop=1;jettySize=auto;html=1;" edge="1" parent="1" source="HY_F-ehwbemfX3zCRTfl-48" target="HY_F-ehwbemfX3zCRTfl-51">
          <mxGeometry relative="1" as="geometry" />
        </mxCell>
        <mxCell id="HY_F-ehwbemfX3zCRTfl-48" value="TARGET &amp;amp; Non Target" style="rounded=1;whiteSpace=wrap;html=1;" vertex="1" parent="1">
          <mxGeometry x="-110" y="710" width="120" height="60" as="geometry" />
        </mxCell>
        <mxCell id="HY_F-ehwbemfX3zCRTfl-49" value="" style="edgeStyle=orthogonalEdgeStyle;rounded=0;orthogonalLoop=1;jettySize=auto;html=1;" edge="1" parent="1" source="HY_F-ehwbemfX3zCRTfl-51" target="HY_F-ehwbemfX3zCRTfl-53">
          <mxGeometry relative="1" as="geometry" />
        </mxCell>
        <mxCell id="HY_F-ehwbemfX3zCRTfl-50" value="" style="edgeStyle=orthogonalEdgeStyle;rounded=0;orthogonalLoop=1;jettySize=auto;html=1;" edge="1" parent="1" source="HY_F-ehwbemfX3zCRTfl-51" target="HY_F-ehwbemfX3zCRTfl-55">
          <mxGeometry relative="1" as="geometry" />
        </mxCell>
        <mxCell id="HY_F-ehwbemfX3zCRTfl-51" value="Screening만 추출" style="shape=parallelogram;perimeter=parallelogramPerimeter;whiteSpace=wrap;html=1;fixedSize=1;rounded=1;" vertex="1" parent="1">
          <mxGeometry x="-110" y="850" width="120" height="60" as="geometry" />
        </mxCell>
        <mxCell id="HY_F-ehwbemfX3zCRTfl-52" value="" style="edgeStyle=orthogonalEdgeStyle;rounded=0;orthogonalLoop=1;jettySize=auto;html=1;fontColor=#000000;" edge="1" parent="1" source="HY_F-ehwbemfX3zCRTfl-53">
          <mxGeometry relative="1" as="geometry">
            <mxPoint x="170" y="1278.7636552648778" as="targetPoint" />
            <Array as="points">
              <mxPoint x="-160" y="1200" />
              <mxPoint x="170" y="1200" />
              <mxPoint x="170" y="1290" />
            </Array>
          </mxGeometry>
        </mxCell>
        <mxCell id="HY_F-ehwbemfX3zCRTfl-53" value="&lt;span style=&quot;background-color: rgb(255, 255, 153);&quot;&gt;SDTM().TU_TL()&lt;/span&gt;&lt;br&gt;-Reader값 나눠서 진행" style="whiteSpace=wrap;html=1;rounded=1;" vertex="1" parent="1">
          <mxGeometry x="-220" y="990" width="120" height="60" as="geometry" />
        </mxCell>
        <mxCell id="HY_F-ehwbemfX3zCRTfl-54" value="" style="edgeStyle=orthogonalEdgeStyle;rounded=0;orthogonalLoop=1;jettySize=auto;html=1;fontColor=#000000;" edge="1" parent="1" source="HY_F-ehwbemfX3zCRTfl-55">
          <mxGeometry relative="1" as="geometry">
            <mxPoint x="170" y="1260" as="targetPoint" />
            <Array as="points">
              <mxPoint x="60" y="1200" />
              <mxPoint x="170" y="1200" />
            </Array>
          </mxGeometry>
        </mxCell>
        <mxCell id="HY_F-ehwbemfX3zCRTfl-55" value="&lt;span style=&quot;background-color: rgb(255, 255, 153);&quot;&gt;SDTM().TU_NTL()&lt;/span&gt;&lt;br&gt;-Reader값 나눠서 진행" style="shape=trapezoid;perimeter=trapezoidPerimeter;whiteSpace=wrap;html=1;fixedSize=1;rounded=1;" vertex="1" parent="1">
          <mxGeometry y="990" width="120" height="60" as="geometry" />
        </mxCell>
        <mxCell id="HY_F-ehwbemfX3zCRTfl-56" value="" style="edgeStyle=orthogonalEdgeStyle;rounded=0;orthogonalLoop=1;jettySize=auto;html=1;" edge="1" parent="1" source="HY_F-ehwbemfX3zCRTfl-57" target="HY_F-ehwbemfX3zCRTfl-59">
          <mxGeometry relative="1" as="geometry" />
        </mxCell>
        <mxCell id="HY_F-ehwbemfX3zCRTfl-57" value="Screening제외 &amp;amp; New Lesio indicator &quot;Yes&quot;만 추출" style="shape=parallelogram;perimeter=parallelogramPerimeter;whiteSpace=wrap;html=1;fixedSize=1;" vertex="1" parent="1">
          <mxGeometry x="270" y="837.5" width="170" height="85" as="geometry" />
        </mxCell>
        <mxCell id="HY_F-ehwbemfX3zCRTfl-58" value="" style="edgeStyle=orthogonalEdgeStyle;rounded=0;orthogonalLoop=1;jettySize=auto;html=1;fontColor=#000000;" edge="1" parent="1" source="HY_F-ehwbemfX3zCRTfl-59">
          <mxGeometry relative="1" as="geometry">
            <mxPoint x="170" y="1320" as="targetPoint" />
            <Array as="points">
              <mxPoint x="355" y="1200" />
              <mxPoint x="170" y="1200" />
              <mxPoint x="170" y="1286" />
              <mxPoint x="173" y="1286" />
              <mxPoint x="173" y="1310" />
            </Array>
          </mxGeometry>
        </mxCell>
        <mxCell id="HY_F-ehwbemfX3zCRTfl-59" value="" style="ellipse;whiteSpace=wrap;html=1;" vertex="1" parent="1">
          <mxGeometry x="295" y="990" width="120" height="60" as="geometry" />
        </mxCell>
        <mxCell id="HY_F-ehwbemfX3zCRTfl-60" value="" style="edgeStyle=orthogonalEdgeStyle;rounded=0;orthogonalLoop=1;jettySize=auto;html=1;fontFamily=Helvetica;fontSize=12;fontColor=default;" edge="1" parent="1" source="HY_F-ehwbemfX3zCRTfl-61" target="HY_F-ehwbemfX3zCRTfl-63">
          <mxGeometry relative="1" as="geometry" />
        </mxCell>
        <mxCell id="HY_F-ehwbemfX3zCRTfl-61" value="TL , NTL , NL 통합&lt;br&gt;1) New Lesion 겹치는 행 제거&lt;br&gt;drop duplicates(subset =&amp;nbsp;[&quot;USUBJID&quot;, &quot;TULOC&quot;&amp;nbsp; , &quot;TULAT&quot;&amp;nbsp; , &quot;TUMETHOD&quot;&amp;nbsp; ,&amp;nbsp; &quot;TUDIR&quot;&amp;nbsp; , &quot;TUPORTOT&quot;])&lt;br&gt;2) 총 6개 dataframe생성(R1 , R2의 TL , NTL , NL&lt;br&gt;3)&amp;nbsp;[&quot;USUBJID&quot; , &quot;VISITNUM&quot;]로 정렬" style="rounded=0;whiteSpace=wrap;html=1;strokeColor=default;fontFamily=Helvetica;fontSize=12;fontColor=default;fillColor=default;" vertex="1" parent="1">
          <mxGeometry x="-250" y="1320" width="600" height="180" as="geometry" />
        </mxCell>
        <mxCell id="HY_F-ehwbemfX3zCRTfl-62" value="" style="edgeStyle=orthogonalEdgeStyle;rounded=0;orthogonalLoop=1;jettySize=auto;html=1;fontFamily=Helvetica;fontSize=12;fontColor=default;" edge="1" parent="1" source="HY_F-ehwbemfX3zCRTfl-63" target="HY_F-ehwbemfX3zCRTfl-64">
          <mxGeometry relative="1" as="geometry" />
        </mxCell>
        <mxCell id="HY_F-ehwbemfX3zCRTfl-63" value="&lt;div&gt;1) STUDYID&lt;/div&gt;&lt;div&gt;2) 대상자별 TUSEQ 지정 컬럼추가&lt;/div&gt;&lt;div&gt;&lt;br&gt;&lt;/div&gt;" style="shape=parallelogram;perimeter=parallelogramPerimeter;whiteSpace=wrap;html=1;fixedSize=1;rounded=0;" vertex="1" parent="1">
          <mxGeometry x="-50" y="1640" width="200" height="100" as="geometry" />
        </mxCell>
        <mxCell id="HY_F-ehwbemfX3zCRTfl-64" value="# TREVALID 판독자 명 변경" style="rhombus;whiteSpace=wrap;html=1;rounded=0;" vertex="1" parent="1">
          <mxGeometry x="-35" y="1780" width="170" height="170" as="geometry" />
        </mxCell>
      </root>
    </mxGraphModel>
  </diagram>
</mxfile>
